# xmcd
#
# Track frame offsets: 
#        150
#        16262
#        34256
#        50912
#        70434
#        91958
#        107654
#        129442
#        147636
#        169906
#        187679
#        202574
#        221166
#        239151
#        256419
#        273167
#        287557
#        307970
#
# Disc length: 4348 seconds
#
# Revision: 0
# Processed by: cddbd v1.5.2PL0 Copyright (c) Steve Scherf et al.
# Submitted via: ExactAudioCopy v1.1
#
DISCID=0c10fa12
DTITLE=Various Artist - Q-Music Top 500 Van De 90's 2018 - CD 4
DYEAR=2018
DGENRE=Top 40
TTITLE0=Take That - Everything Changes
TTITLE1=Wet Wet Wet - Love Is All Around
TTITLE2=Whigfield - Saturday Night
TTITLE3=Joshua Kadison - Jessie
TTITLE4=LL Cool J - Doin' It
TTITLE5=New Kids On The Block - Tonight
TTITLE6=Whitney Houston - I Have Nothing
TTITLE7=Shania Twain - That Don't Impress Me Much
TTITLE8=R. Kelly - If I Could Turn Back The Hands Of Time
TTITLE9=3T - I Need You
TTITLE10=T-Spoon - Mercedes Benz
TTITLE11=Nasty - Een Moment Zonder Jou
TTITLE12=Golden Earring - Going To The Run
TTITLE13=Rene Klijn - Mr. Blue
TTITLE14=Wamdue Project - King Of My Castle
TTITLE15=Solid Harmonie - I'll Be There for You
TTITLE16=Céline Dion - Think Twice
TTITLE17=The Adventures Of Stevie V - Dirty Cash (Money Talks)
EXTD=
EXTT0=
EXTT1=
EXTT2=
EXTT3=
EXTT4=
EXTT5=
EXTT6=
EXTT7=
EXTT8=
EXTT9=
EXTT10=
EXTT11=
EXTT12=
EXTT13=
EXTT14=
EXTT15=
EXTT16=
EXTT17=
PLAYORDER=
